<svg xmlns="http://www.w3.org/2000/svg" viewBox="0 0 817.963 948.668"><defs><style>.a,.c{fill:#fff;}.a{stroke:#707070;}.b{fill:#9cb280;}</style></defs><g transform="translate(-107.496 -1873.938)"><path class="a" d="M418.42,947.653h0L0,724.035V229.368L403.091,0,816.963,229.368V724.035L418.42,947.653Zm-14.5-911.028L32.087,248.206V704.512L418.059,910.789,785.7,704.512V248.206L403.919,36.626Z" transform="translate(107.996 1874.512)"/><rect class="b" width="186.499" height="47.121" rx="23.561" transform="translate(238.589 2114)"/><rect class="c" width="358.815" height="47.121" rx="23.561" transform="translate(434.306 2119)"/><rect class="c" width="554.532" height="47.121" rx="23.561" transform="translate(238.589 2202.368)"/><rect class="c" width="554.532" height="47.121" rx="23.561" transform="translate(238.589 2285.736)"/><rect class="c" width="554.532" height="47.121" rx="23.561" transform="translate(238.589 2369.104)"/><rect class="c" width="554.532" height="47.121" rx="23.561" transform="translate(238.589 2452.472)"/><rect class="c" width="554.532" height="47.121" rx="23.561" transform="translate(239.298 2535.84)"/></g></svg>